<svg width="1366" height="351" viewBox="0 0 1366 351" fill="none" xmlns="http://www.w3.org/2000/svg">
<path d="M1366.12 76.5C1209.93 -20.5677 987.93 34.4201 806.504 79.3589C701.103 105.466 609.395 128.182 552.237 115.721C511.526 106.846 468.202 88.4211 422.175 68.8467C300.792 17.2242 160.614 -42.3916 0.000997997 44.086C0.00094977 1079 0.000997997 1085 0.000997997 1085C31.3877 1069.99 232.58 988.609 629.611 1104.44C745.712 1133.73 846.731 1159.22 911.721 1148.4C973.102 1138.18 1033.26 1099.42 1096.55 1058.64C1178.06 1006.12 1264.77 950.256 1366 947.651C1366 743.679 1366.12 268.5 1366.12 76.5Z" fill="#FCC02A"/>
<ellipse rx="44.7424" ry="20.099" transform="matrix(0.999276 0.0380359 0.159893 0.987134 179.026 41.5666)" fill="#DD9911"/>
<ellipse rx="40.4789" ry="17.1502" transform="matrix(0.999276 0.0380358 0.159893 0.987134 177.968 44.8363)" fill="#F7B125"/>
<ellipse rx="24.0173" ry="10.789" transform="matrix(0.999276 0.0380362 0.159891 0.987135 495.124 125.564)" fill="#DD9911"/>
<ellipse rx="21.7287" ry="9.20605" transform="matrix(0.999276 0.0380357 0.159893 0.987134 494.556 127.318)" fill="#F7B125"/>
<mask id="mask0" mask-type="alpha" maskUnits="userSpaceOnUse" x="0" y="85" width="79" height="81">
<rect x="0.000976562" y="85" width="78" height="81" fill="#C4C4C4"/>
</mask>
<g mask="url(#mask0)">
<ellipse rx="47.1984" ry="29.4794" transform="matrix(0.998934 0.0461626 0.109925 0.99394 12.4843 125.48)" fill="#DD9911"/>
<ellipse rx="42.7009" ry="25.1543" transform="matrix(0.998934 0.0461629 0.109924 0.99394 11.3429 130.319)" fill="#F7B125"/>
</g>
<ellipse rx="21.6604" ry="9.7302" transform="matrix(0.990788 0.135421 0.0627469 0.998029 321.399 72.6443)" fill="#CC9919"/>
<ellipse rx="19.5964" ry="8.30262" transform="matrix(0.990787 0.135426 0.0627446 0.99803 320.735 74.1691)" fill="white"/>
<mask id="mask1" mask-type="alpha" maskUnits="userSpaceOnUse" x="1179" y="205" width="188" height="150">
<rect x="1179" y="205" width="187" height="150" fill="#C4C4C4"/>
</mask>
<g mask="url(#mask1)">
<ellipse rx="115.434" ry="63.2944" transform="matrix(0.996363 0.0852098 0.0853054 0.996355 1313.3 287.644)" fill="#DD9911"/>
<ellipse rx="104.434" ry="54.0081" transform="matrix(0.996363 0.0852091 0.0853061 0.996355 1310.1 297.879)" fill="#F7B125"/>
</g>
<ellipse rx="16.8607" ry="9.24501" transform="matrix(0.972415 -0.233258 0.395059 0.918656 1060.05 62.7998)" fill="#DD9911"/>
<ellipse rx="15.254" ry="7.88862" transform="matrix(0.972415 -0.233257 0.395061 0.918655 1060.08 64.3656)" fill="#F7B125"/>
<ellipse rx="12.6111" ry="8.72196" transform="matrix(0.973941 -0.2268 0.366973 0.930231 1112.48 178.258)" fill="#DD9911"/>
<ellipse rx="11.4094" ry="7.44231" transform="matrix(0.973941 -0.226801 0.366971 0.930232 1112.58 179.721)" fill="#F7B125"/>
<ellipse rx="36.6997" ry="20.1231" transform="matrix(0.972416 -0.233252 0.395068 0.918652 969.638 146.293)" fill="#CC9919"/>
<ellipse rx="33.2026" ry="17.1707" transform="matrix(0.972417 -0.233249 0.395072 0.91865 969.699 149.7)" fill="white"/>
<ellipse rx="44.4773" ry="24.3877" transform="matrix(0.972604 0.232468 -0.0638485 0.99796 1299 94.3777)" fill="#CC9919"/>
<ellipse rx="40.2391" ry="20.8096" transform="matrix(0.972604 0.232466 -0.063849 0.99796 1297.2 98.0921)" fill="white"/>
<ellipse rx="20.1943" ry="10.5701" transform="matrix(0.971792 -0.23584 0.402866 0.915259 776.077 113.937)" fill="#CC9919"/>
<ellipse rx="18.27" ry="9.01928" transform="matrix(0.971792 -0.235839 0.402868 0.915258 776.091 115.73)" fill="white"/>
</svg>
