<svg width="131" height="131" viewBox="0 0 131 131" fill="none" xmlns="http://www.w3.org/2000/svg">
<path d="M121.339 56.6497C121.323 72.7762 118.155 87.5636 107.847 100.454C97.9735 112.803 83.242 120.231 67.5022 121.286C33.8347 123.546 8.29668 96.0048 8.77883 63.1686C8.78771 62.668 7.95394 62.5757 7.89228 63.0847C3.80749 97.0732 34.5142 125.35 67.569 123.137C99.8555 120.974 128.052 89.6528 122.083 56.5222C122.004 56.0859 121.339 56.2395 121.339 56.6497Z" fill="#E7E7E7"/>
<path d="M122.193 60.5243C125.345 31.4488 89.7363 7.88425 63.7379 7.2505C48.4073 6.87482 34.4022 15.224 24.2782 26.1879C14.6552 36.6137 5.28451 50.81 7.61744 65.6456C7.71962 66.29 8.69099 66.2952 8.66007 65.6089C7.44075 38.9385 35.7424 8.90528 62.6622 9.05801C89.3932 9.20983 121.569 32.0459 121.277 60.4375C121.27 60.9541 122.137 61.0528 122.193 60.5243Z" fill="#E7E7E7"/>
</svg>
